<svg width="24" height="28" viewBox="0 0 24 28" fill="none" xmlns="http://www.w3.org/2000/svg">
<g clip-path="url(#clip0_24_110)">
<path d="M12.0053 7.55362C8.59819 7.55362 5.84998 10.3018 5.84998 13.709C5.84998 17.1161 8.59819 19.8643 12.0053 19.8643C15.4125 19.8643 18.1607 17.1161 18.1607 13.709C18.1607 10.3018 15.4125 7.55362 12.0053 7.55362ZM12.0053 17.7108C9.80355 17.7108 8.00355 15.9161 8.00355 13.709C8.00355 11.5018 9.79819 9.70719 12.0053 9.70719C14.2125 9.70719 16.0071 11.5018 16.0071 13.709C16.0071 15.9161 14.2071 17.7108 12.0053 17.7108ZM19.8482 7.30183C19.8482 8.10005 19.2053 8.73755 18.4125 8.73755C17.6143 8.73755 16.9768 8.09469 16.9768 7.30183C16.9768 6.50897 17.6196 5.86612 18.4125 5.86612C19.2053 5.86612 19.8482 6.50897 19.8482 7.30183ZM23.925 8.75897C23.8339 6.83576 23.3946 5.13219 21.9857 3.72862C20.5821 2.32505 18.8785 1.88576 16.9553 1.78933C14.9732 1.67683 9.03212 1.67683 7.04998 1.78933C5.13213 1.8804 3.42856 2.31969 2.01963 3.72326C0.610703 5.12683 0.176775 6.8304 0.0803466 8.75362C-0.0321533 10.7358 -0.0321533 16.6768 0.0803466 18.659C0.171418 20.5822 0.610703 22.2858 2.01963 23.6893C3.42856 25.0929 5.12677 25.5322 7.04998 25.6286C9.03212 25.7411 14.9732 25.7411 16.9553 25.6286C18.8785 25.5375 20.5821 25.0983 21.9857 23.6893C23.3892 22.2858 23.8285 20.5822 23.925 18.659C24.0375 16.6768 24.0375 10.7411 23.925 8.75897ZM21.3642 20.7858C20.9464 21.8358 20.1375 22.6447 19.0821 23.0679C17.5018 23.6947 13.7518 23.55 12.0053 23.55C10.2589 23.55 6.50355 23.6893 4.92855 23.0679C3.87856 22.65 3.06963 21.8411 2.64641 20.7858C2.01963 19.2054 2.16427 15.4554 2.16427 13.709C2.16427 11.9625 2.02499 8.20719 2.64641 6.63219C3.06427 5.58219 3.8732 4.77326 4.92855 4.35005C6.50891 3.72326 10.2589 3.8679 12.0053 3.8679C13.7518 3.8679 17.5071 3.72862 19.0821 4.35005C20.1321 4.7679 20.941 5.57683 21.3642 6.63219C21.991 8.21255 21.8464 11.9625 21.8464 13.709C21.8464 15.4554 21.991 19.2108 21.3642 20.7858Z" fill="#111827"/>
</g>
<defs>
<clipPath id="clip0_24_110">
<rect width="24" height="27.4286" fill="white"/>
</clipPath>
</defs>
</svg>
